<svg width="172" height="554" fill="none" xmlns="http://www.w3.org/2000/svg"><path d="M87.178 338.139a4.03 4.03 0 114.029 4.028c-2.2 0-4.029-1.804-4.029-4.028z" fill="url(#paint0_linear)"/><path d="M91.898 246.82h-1.334v88.971h1.335V246.82z" fill="url(#paint1_linear)"/><path d="M-5.253 154.34a4.03 4.03 0 114.029 4.028c-2.2.025-4.029-1.779-4.029-4.028z" fill="url(#paint2_linear)"/><path d="M60.388 384.082a4.029 4.029 0 118.058.002 4.029 4.029 0 01-8.058-.002z" fill="url(#paint3_linear)"/><path d="M65.108 292.764h-1.334v88.971h1.334v-88.971z" fill="url(#paint4_linear)"/><path d="M122.742 124.954a4.029 4.029 0 118.058.002 4.029 4.029 0 01-8.058-.002z" fill="url(#paint5_linear)"/><path d="M127.438 33.66h-1.335v88.971h1.335v-88.97z" fill="url(#paint6_linear)"/><path d="M11.553 121a4.029 4.029 0 118.058.002 4.029 4.029 0 01-8.058-.002z" fill="url(#paint7_linear)"/><path d="M16.273 74.192H14.94v44.485h1.334V74.192z" fill="url(#paint8_linear)"/><path d="M163.495 344.663a4.03 4.03 0 018.057 0 4.029 4.029 0 01-4.028 4.029c-2.2 0-4.029-1.804-4.029-4.029z" fill="url(#paint9_linear)"/><path d="M168.216 297.83h-1.335v44.485h1.335V297.83z" fill="url(#paint10_linear)"/><path d="M61.97 47.303a4.03 4.03 0 114.028 4.028c-2.2.025-4.028-1.804-4.028-4.028z" fill="url(#paint11_linear)"/><path d="M66.69.494h-1.334V44.98h1.334V.494z" fill="url(#paint12_linear)"/><path d="M5.918 372.862a4.029 4.029 0 118.058.002 4.029 4.029 0 01-8.058-.002z" fill="url(#paint13_linear)"/><path d="M10.614 281.543H9.279v88.996h1.335v-88.996z" fill="url(#paint14_linear)"/><path d="M121.852 325.633a4.029 4.029 0 114.028 4.029c-2.224.024-4.028-1.78-4.028-4.029z" fill="url(#paint15_linear)"/><path d="M126.548 234.339h-1.335v88.996h1.335v-88.996z" fill="url(#paint16_linear)"/><path d="M98.522 374.024a4.03 4.03 0 018.057 0 4.029 4.029 0 01-8.057 0z" fill="url(#paint17_linear)"/><path d="M103.218 64.677h-1.335V371.7h1.335V64.677z" fill="url(#paint18_linear)"/><path d="M75.29 225.862a4.029 4.029 0 114.029 4.029c-2.224.024-4.028-1.78-4.028-4.029z" fill="url(#paint19_linear)"/><path d="M80.011 53.679h-1.334v169.86h1.334V53.679z" fill="url(#paint20_linear)"/><defs><linearGradient id="paint0_linear" x1="91.224" y1="315.457" x2="91.224" y2="245.437" gradientUnits="userSpaceOnUse"><stop stop-color="#A4FFFF"/><stop offset="1" stop-color="#A4FFFF" stop-opacity="0"/></linearGradient><linearGradient id="paint1_linear" x1="91.227" y1="315.456" x2="91.227" y2="245.438" gradientUnits="userSpaceOnUse"><stop stop-color="#A4FFFF"/><stop offset="1" stop-color="#A4FFFF" stop-opacity="0"/></linearGradient><linearGradient id="paint2_linear" x1="-1.205" y1="131.676" x2="-1.205" y2="61.654" gradientUnits="userSpaceOnUse"><stop stop-color="#A4FFFF"/><stop offset="1" stop-color="#A4FFFF" stop-opacity="0"/></linearGradient><linearGradient id="paint3_linear" x1="64.431" y1="361.411" x2="64.431" y2="291.41" gradientUnits="userSpaceOnUse"><stop stop-color="#A4FFFF"/><stop offset="1" stop-color="#A4FFFF" stop-opacity="0"/></linearGradient><linearGradient id="paint4_linear" x1="64.432" y1="361.404" x2="64.432" y2="291.386" gradientUnits="userSpaceOnUse"><stop stop-color="#A4FFFF"/><stop offset="1" stop-color="#A4FFFF" stop-opacity="0"/></linearGradient><linearGradient id="paint5_linear" x1="126.771" y1="102.282" x2="126.771" y2="32.263" gradientUnits="userSpaceOnUse"><stop stop-color="#A4FFFF"/><stop offset="1" stop-color="#A4FFFF" stop-opacity="0"/></linearGradient><linearGradient id="paint6_linear" x1="126.77" y1="102.281" x2="126.77" y2="32.263" gradientUnits="userSpaceOnUse"><stop stop-color="#A4FFFF"/><stop offset="1" stop-color="#A4FFFF" stop-opacity="0"/></linearGradient><linearGradient id="paint7_linear" x1="15.593" y1="98.331" x2="15.593" y2="28.312" gradientUnits="userSpaceOnUse"><stop stop-color="#A4FFFF"/><stop offset="1" stop-color="#A4FFFF" stop-opacity="0"/></linearGradient><linearGradient id="paint8_linear" x1="15.594" y1="108.507" x2="15.594" y2="73.498" gradientUnits="userSpaceOnUse"><stop stop-color="#A4FFFF"/><stop offset="1" stop-color="#A4FFFF" stop-opacity="0"/></linearGradient><linearGradient id="paint9_linear" x1="167.542" y1="321.981" x2="167.542" y2="251.961" gradientUnits="userSpaceOnUse"><stop stop-color="#A4FFFF"/><stop offset="1" stop-color="#A4FFFF" stop-opacity="0"/></linearGradient><linearGradient id="paint10_linear" x1="167.542" y1="332.157" x2="167.542" y2="297.148" gradientUnits="userSpaceOnUse"><stop stop-color="#A4FFFF"/><stop offset="1" stop-color="#A4FFFF" stop-opacity="0"/></linearGradient><linearGradient id="paint11_linear" x1="66.018" y1="24.635" x2="66.018" y2="-45.385" gradientUnits="userSpaceOnUse"><stop stop-color="#A4FFFF"/><stop offset="1" stop-color="#A4FFFF" stop-opacity="0"/></linearGradient><linearGradient id="paint12_linear" x1="66.02" y1="34.81" x2="66.02" y2="-.196" gradientUnits="userSpaceOnUse"><stop stop-color="#A4FFFF"/><stop offset="1" stop-color="#A4FFFF" stop-opacity="0"/></linearGradient><linearGradient id="paint13_linear" x1="9.957" y1="350.188" x2="9.957" y2="280.168" gradientUnits="userSpaceOnUse"><stop stop-color="#A4FFFF"/><stop offset="1" stop-color="#A4FFFF" stop-opacity="0"/></linearGradient><linearGradient id="paint14_linear" x1="9.956" y1="350.188" x2="9.956" y2="280.168" gradientUnits="userSpaceOnUse"><stop stop-color="#A4FFFF"/><stop offset="1" stop-color="#A4FFFF" stop-opacity="0"/></linearGradient><linearGradient id="paint15_linear" x1="125.887" y1="302.964" x2="125.887" y2="232.923" gradientUnits="userSpaceOnUse"><stop stop-color="#A4FFFF"/><stop offset="1" stop-color="#A4FFFF" stop-opacity="0"/></linearGradient><linearGradient id="paint16_linear" x1="125.888" y1="302.97" x2="125.888" y2="232.952" gradientUnits="userSpaceOnUse"><stop stop-color="#A4FFFF"/><stop offset="1" stop-color="#A4FFFF" stop-opacity="0"/></linearGradient><linearGradient id="paint17_linear" x1="102.548" y1="334.534" x2="102.548" y2="209.835" gradientUnits="userSpaceOnUse"><stop stop-color="#A4FFFF"/><stop offset="1" stop-color="#A4FFFF" stop-opacity="0"/></linearGradient><linearGradient id="paint18_linear" x1="102.55" y1="303.331" x2="102.55" y2="73.943" gradientUnits="userSpaceOnUse"><stop stop-color="#A4FFFF"/><stop offset="1" stop-color="#A4FFFF" stop-opacity="0"/></linearGradient><linearGradient id="paint19_linear" x1="79.33" y1="186.369" x2="79.33" y2="61.632" gradientUnits="userSpaceOnUse"><stop stop-color="#A4FFFF"/><stop offset="1" stop-color="#A4FFFF" stop-opacity="0"/></linearGradient><linearGradient id="paint20_linear" x1="79.33" y1="185.724" x2="79.33" y2="58.809" gradientUnits="userSpaceOnUse"><stop stop-color="#A4FFFF"/><stop offset="1" stop-color="#A4FFFF" stop-opacity="0"/></linearGradient></defs></svg>