<svg width="120" height="21" fill="none" xmlns="http://www.w3.org/2000/svg"><path d="M4.903 20l1.403-4.312h6.823L14.533 20h4.284L12.298 1.09H7.146L.62 20h4.284zm2.419-7.432l2.326-7.156h.148l2.327 7.156H7.322zM21.418 20h3.998v-6.703h2.917L31.916 20h4.413l-4.016-7.35c2.15-.923 3.342-2.797 3.342-5.382 0-3.758-2.484-6.177-6.777-6.177h-7.46V20zm3.998-9.916V4.359h2.696c2.308 0 3.425 1.025 3.425 2.909 0 1.874-1.117 2.816-3.407 2.816h-2.714zm23.647-3.555h3.832C52.839 3.16 50.069.832 45.859.832c-4.145 0-7.183 2.29-7.165 5.725-.009 2.788 1.958 4.386 5.152 5.152l2.06.517c2.058.498 3.203 1.09 3.212 2.363-.009 1.385-1.32 2.327-3.351 2.327-2.078 0-3.573-.96-3.703-2.853h-3.868c.101 4.09 3.028 6.205 7.617 6.205 4.616 0 7.331-2.207 7.34-5.67-.009-3.148-2.382-4.819-5.669-5.558l-1.699-.406c-1.643-.378-3.019-.988-2.991-2.345 0-1.219 1.08-2.114 3.038-2.114 1.91 0 3.083.868 3.231 2.354zm10.964 5.272c.009-1.828 1.126-2.899 2.733-2.899 1.597 0 2.539 1.025 2.53 2.77V20h3.933v-9.03c.009-3.324-1.948-5.336-4.903-5.336-2.151 0-3.592 1.015-4.238 2.686h-.166V1.09h-3.823V20h3.934v-8.199zm16.66 8.467c2.096 0 3.453-.914 4.146-2.235h.11V20h3.73v-9.565c0-3.38-2.862-4.801-6.02-4.801-3.397 0-5.631 1.625-6.176 4.21l3.638.295c.267-.942 1.108-1.634 2.52-1.634 1.339 0 2.105.674 2.105 1.837v.056c0 .914-.97 1.034-3.434 1.274-2.807.258-5.328 1.2-5.328 4.367 0 2.807 2.004 4.229 4.71 4.229zm1.127-2.715c-1.21 0-2.078-.563-2.078-1.643 0-1.108.914-1.653 2.3-1.847.858-.12 2.261-.323 2.732-.637v1.505c0 1.487-1.228 2.622-2.954 2.622zM88.05 20h3.933v-4.506l1.062-1.21L96.914 20h4.607l-5.53-8.042 5.262-6.14h-4.515l-4.542 5.383h-.213V1.091H88.05V20zm15.458 0h3.933V5.818h-3.933V20zm1.976-16.01c1.172 0 2.133-.896 2.133-1.994 0-1.09-.961-1.985-2.133-1.985-1.164 0-2.124.895-2.124 1.985 0 1.098.96 1.994 2.124 1.994zM110.917 20h3.933v-8.023c0-1.745 1.274-2.946 3.01-2.946.545 0 1.293.093 1.662.213v-3.49a5.902 5.902 0 00-1.237-.139c-1.588 0-2.89.923-3.407 2.678h-.148V5.818h-3.813V20z" fill="#F2994A"/></svg>